HIERARCHY
ROOT hip
{
  OFFSET 0 0 0
  CHANNELS 6 Xposition Yposition Zposition Zrotation Yrotation Xrotation
  JOINT abdomen
  {
    OFFSET 0 20.6881 -0.73152
    CHANNELS 3 Zrotation Xrotation Yrotation
    JOINT chest
    {
      OFFSET 0 11.7043 -0.48768
      CHANNELS 3 Zrotation Xrotation Yrotation
      JOINT neck
      {
        OFFSET 0 22.1894 -2.19456
        CHANNELS 3 Zrotation Xrotation Yrotation
        JOINT head
        {
          OFFSET -0.24384 7.07133 1.2192
          CHANNELS 3 Zrotation Xrotation Yrotation
          JOINT leftEye
          {
            OFFSET 4.14528 8.04674 8.04672
            CHANNELS 3 Zrotation Xrotation Yrotation
            End Site
            {
              OFFSET 1 0 0
            }
          }
          JOINT rightEye
          {
            OFFSET -3.6576 8.04674 8.04672
            CHANNELS 3 Zrotation Xrotation Yrotation
            End Site
            {
              OFFSET 1 0 0
            }
          }
        }
      }
      JOINT rCollar
      {
        OFFSET -2.68224 19.2634 -4.8768
        CHANNELS 3 Zrotation Xrotation Yrotation
        JOINT rShldr
        {
          OFFSET -8.77824 -1.95073 1.46304
          CHANNELS 3 Zrotation Xrotation Yrotation
          JOINT rForeArm
          {
            OFFSET -28.1742 -1.7115 0.48768
            CHANNELS 3 Zrotation Xrotation Yrotation
            JOINT rHand
            {
              OFFSET -22.5879 0.773209 7.07136
              CHANNELS 3 Zrotation Xrotation Yrotation
              JOINT rThumb1
              {
                OFFSET -1.2192 -0.487915 3.41376
                CHANNELS 3 Zrotation Xrotation Yrotation
                JOINT rThumb2
                {
                  OFFSET -3.37035 -0.52449 3.41376
                  CHANNELS 3 Zrotation Xrotation Yrotation
                  End Site
                  {
                    OFFSET -1.78271 -1.18214 1.43049
                  }
                }
              }
              JOINT rIndex1
              {
                OFFSET -7.75947 0.938293 5.60832
                CHANNELS 3 Zrotation Xrotation Yrotation
                JOINT rIndex2
                {
                  OFFSET -2.54057 -0.884171 1.56538
                  CHANNELS 3 Zrotation Xrotation Yrotation
                  End Site
                  {
                    OFFSET -1.62519 -0.234802 1.16502
                  }
                }
              }
              JOINT rMid1
              {
                OFFSET -8.24714 1.18213 3.41376
                CHANNELS 3 Zrotation Xrotation Yrotation
                JOINT rMid2
                {
                  OFFSET -3.10165 -0.590103 1.0647
                  CHANNELS 3 Zrotation Xrotation Yrotation
                  End Site
                  {
                    OFFSET -2.48547 -0.328903 0.83742
                  }
                }
              }
              JOINT rRing1
              {
                OFFSET -8.82822 0.546677 1.51678
                CHANNELS 3 Zrotation Xrotation Yrotation
                JOINT rRing2
                {
                  OFFSET -2.60934 -0.819778 -0.0198488
                  CHANNELS 3 Zrotation Xrotation Yrotation
                  End Site
                  {
                    OFFSET -2.33842 -0.294052 0.168128
                  }
                }
              }
              JOINT rPinky1
              {
                OFFSET -8.27202 -0.0477905 -0.4584
                CHANNELS 3 Zrotation Xrotation Yrotation
                JOINT rPinky2
                {
                  OFFSET -1.82734 -0.647385 -0.700984
                  CHANNELS 3 Zrotation Xrotation Yrotation
                  End Site
                  {
                    OFFSET -1.69225 -0.51767 -0.607171
                  }
                }
              }
            }
          }
        }
      }
      JOINT lCollar
      {
        OFFSET 2.68224 19.2634 -4.8768
        CHANNELS 3 Zrotation Xrotation Yrotation
        JOINT lShldr
        {
          OFFSET 8.77824 -1.95073 1.46304
          CHANNELS 3 Zrotation Xrotation Yrotation
          JOINT lForeArm
          {
            OFFSET 28.1742 -1.7115 0.48768
            CHANNELS 3 Zrotation Xrotation Yrotation
            JOINT lHand
            {
              OFFSET 22.5879 0.773209 7.07136
              CHANNELS 3 Zrotation Xrotation Yrotation
              JOINT lThumb1
              {
                OFFSET 1.2192 -0.487915 3.41376
                CHANNELS 3 Zrotation Xrotation Yrotation
                JOINT lThumb2
                {
                  OFFSET 3.37035 -0.52449 3.41376
                  CHANNELS 3 Zrotation Xrotation Yrotation
                  End Site
                  {
                    OFFSET 1.78271 -1.18214 1.43049
                  }
                }
              }
              JOINT lIndex1
              {
                OFFSET 7.75947 0.938293 5.60832
                CHANNELS 3 Zrotation Xrotation Yrotation
                JOINT lIndex2
                {
                  OFFSET 2.54057 -0.884171 1.56538
                  CHANNELS 3 Zrotation Xrotation Yrotation
                  End Site
                  {
                    OFFSET 1.62519 -0.234802 1.16502
                  }
                }
              }
              JOINT lMid1
              {
                OFFSET 8.24714 1.18213 3.41376
                CHANNELS 3 Zrotation Xrotation Yrotation
                JOINT lMid2
                {
                  OFFSET 3.10165 -0.590103 1.0647
                  CHANNELS 3 Zrotation Xrotation Yrotation
                  End Site
                  {
                    OFFSET 2.48547 -0.328903 0.83742
                  }
                }
              }
              JOINT lRing1
              {
                OFFSET 8.82822 0.546677 1.51678
                CHANNELS 3 Zrotation Xrotation Yrotation
                JOINT lRing2
                {
                  OFFSET 2.60934 -0.819778 -0.0198488
                  CHANNELS 3 Zrotation Xrotation Yrotation
                  End Site
                  {
                    OFFSET 2.33842 -0.294052 0.168128
                  }
                }
              }
              JOINT lPinky1
              {
                OFFSET 8.27202 -0.0477905 -0.4584
                CHANNELS 3 Zrotation Xrotation Yrotation
                JOINT lPinky2
                {
                  OFFSET 1.82734 -0.647385 -0.700984
                  CHANNELS 3 Zrotation Xrotation Yrotation
                  End Site
                  {
                    OFFSET 1.69225 -0.51767 -0.607171
                  }
                }
              }
            }
          }
        }
      }
    }
  }
  JOINT rButtock
  {
    OFFSET -8.77824 4.35084 1.2192
    CHANNELS 3 Zrotation Xrotation Yrotation
    JOINT rThigh
    {
      OFFSET 0 -1.70687 -2.19456
      CHANNELS 3 Zrotation Xrotation Yrotation
      JOINT rShin
      {
        OFFSET 0 -36.8199 0.73152
        CHANNELS 3 Zrotation Xrotation Yrotation
        JOINT rFoot
        {
          OFFSET 0.73152 -45.1104 -5.12064
          CHANNELS 3 Zrotation Xrotation Yrotation
          End Site
          {
            OFFSET -1.1221 -3.69964 12.103
          }
        }
      }
    }
  }
  JOINT lButtock
  {
    OFFSET 8.77824 4.35084 1.2192
    CHANNELS 3 Zrotation Xrotation Yrotation
    JOINT lThigh
    {
      OFFSET 0 -1.70687 -2.19456
      CHANNELS 3 Zrotation Xrotation Yrotation
      JOINT lShin
      {
        OFFSET 0 -36.8199 0.73152
        CHANNELS 3 Zrotation Xrotation Yrotation
        JOINT lFoot
        {
          OFFSET -0.73152 -45.1104 -5.12064
          CHANNELS 3 Zrotation Xrotation Yrotation
          End Site
          {
            OFFSET 1.1221 -3.69964 12.103
          }
        }
      }
    }
  }
}
MOTION
Frames:	4
Frame Time:	0.00833333
89.1626 78.091 -74.9768 -2.7306 26.8639 12.8078 1.50285 -6.45484 -5.4552 5.24404 -10.652 -1.07642 -0.584477 22.9196 -17.0945 14.2228 -48.8611 -29.0246 -0.0 0.0 0.0 -0.0 0.0 0.0 2.43887e-14 -1.92652e-13 3.43944e-14 32.5203 53.4943 -16.3082 14.8257 -56.4861 -125.664 -1.50874 -32.5985 -5.15642 6.71286e-10 1.9108e-09 -1.40165e-09 1.19815e-09 3.33578e-09 -2.4089e-09 6.71279e-10 1.91081e-09 -1.40167e-09 7.73091 5.47488 0.417314 6.7128e-10 1.91082e-09 -1.40165e-09 2.90554 0.965183 0.102902 6.71291e-10 1.91082e-09 -1.40165e-09 10.2786 0.731801 0.0259123 6.7129e-10 1.91082e-09 -1.40164e-09 2.22167 -0.733487 -0.20892 2.43431e-14 -1.92654e-13 3.40958e-14 -45.8691 27.2518 31.051 -11.5683 -57.8448 132.117 0.2353 -13.7135 1.96512 -1.32028e-09 2.02743e-09 -1.96545e-10 -2.28056e-09 3.56317e-09 -3.55011e-10 -1.32028e-09 2.02745e-09 -1.96526e-10 -7.73091 5.47488 -0.417314 -1.32027e-09 2.02744e-09 -1.96545e-10 -2.90554 0.965183 -0.102902 -1.32028e-09 2.02743e-09 -1.96542e-10 -10.2786 0.731801 -0.0259123 -1.32028e-09 2.02743e-09 -1.96542e-10 -2.22167 -0.733487 0.20892 -2.03217e-16 0.0 -3.88251e-19 -2.94622 -42.2821 13.742 -0.403369 44.9657 1.04573 -11.0127 -16.4746 -25.5966 2.03217e-16 0.0 3.88251e-19 -9.87687 -45.3133 -27.2229 0.652003 51.6112 -1.09559 7.6126 -15.0024 17.7864
89.2102 78.0759 -74.9449 -2.4432 26.5737 12.8556 1.23754 -6.35002 -5.37857 5.3175 -10.6019 -1.04584 -0.769735 22.8515 -17.0848 14.2087 -48.7578 -29.0479 -0.0 0.0 0.0 -0.0 0.0 0.0 -3.25814e-14 -2.1394e-13 -3.42282e-15 32.14 53.6191 -15.8854 14.9073 -56.4471 -125.496 -1.50725 -32.5847 -5.15366 9.71404e-10 2.40491e-09 -1.58826e-09 1.72141e-09 4.18894e-09 -2.72274e-09 9.71398e-10 2.40491e-09 -1.58827e-09 7.73091 5.47488 0.417314 9.71399e-10 2.40493e-09 -1.58826e-09 2.90554 0.965183 0.102902 9.71407e-10 2.40493e-09 -1.58826e-09 10.2786 0.731801 0.0259123 9.71407e-10 2.40493e-09 -1.58825e-09 2.22167 -0.733487 -0.20892 -3.26221e-14 -2.13944e-13 -3.70547e-15 -45.9652 27.7321 31.0664 -11.4539 -57.8863 132.337 0.20932 -12.9725 1.85491 -1.03483e-09 2.66505e-09 -4.55603e-10 -1.78294e-09 4.64581e-09 -7.9908e-10 -1.03483e-09 2.66506e-09 -4.55585e-10 -7.73091 5.47488 -0.417314 -1.03483e-09 2.66505e-09 -4.55604e-10 -2.90554 0.965183 -0.102902 -1.03484e-09 2.66505e-09 -4.55601e-10 -10.2786 0.731801 -0.0259123 -1.03483e-09 2.66505e-09 -4.55603e-10 -2.22167 -0.733487 0.20892 -2.03217e-16 0.0 -3.88251e-19 -3.14673 -42.3113 13.8018 -0.405832 44.9935 1.03789 -10.876 -16.244 -25.5017 2.03217e-16 0.0 3.88251e-19 -9.94875 -45.1624 -26.9896 0.651016 51.5939 -1.09569 7.59152 -14.9406 17.7854
89.2274 78.0709 -74.8967 -2.3234 26.3109 12.8192 0.938368 -6.24083 -5.30158 5.38269 -10.5594 -1.01501 -1.00521 22.7855 -17.0263 14.2737 -48.6296 -28.9419 -0.0 0.0 0.0 -0.0 0.0 0.0 -8.16215e-14 -2.3411e-13 -4.02492e-14 31.8075 53.7167 -15.516 14.979 -56.4127 -125.349 -1.50809 -32.5927 -5.15524 1.21183e-09 2.77801e-09 -1.70862e-09 2.13969e-09 4.83198e-09 -2.92358e-09 1.21183e-09 2.77799e-09 -1.70863e-09 7.73091 5.47488 0.417314 1.21183e-09 2.77802e-09 -1.70862e-09 2.90554 0.965183 0.102902 1.21183e-09 2.77802e-09 -1.70862e-09 10.2786 0.731801 0.0259123 1.21183e-09 2.77802e-09 -1.70861e-09 2.22167 -0.733487 -0.20892 -8.16637e-14 -2.34115e-13 -4.05113e-14 -46.0392 28.1709 31.055 -11.3387 -57.9274 132.557 0.187789 -12.2878 1.75395 -7.27499e-10 3.26215e-09 -7.01563e-10 -1.24752e-09 5.6582e-09 -1.22029e-09 -7.275e-10 3.26215e-09 -7.01548e-10 -7.73091 5.47488 -0.417314 -7.27496e-10 3.26215e-09 -7.01566e-10 -2.90554 0.965183 -0.102902 -7.27504e-10 3.26215e-09 -7.01563e-10 -10.2786 0.731801 -0.0259123 -7.27489e-10 3.26215e-09 -7.01567e-10 -2.22167 -0.733487 0.20892 -2.03217e-16 0.0 -3.88251e-19 -3.37599 -42.3376 13.8628 -0.408269 45.0169 1.02968 -10.7363 -15.9979 -25.4115 2.03217e-16 0.0 3.88251e-19 -10.0496 -44.9994 -26.763 0.649312 51.558 -1.095 7.57458 -14.8539 17.8148
89.2273 78.0755 -74.8242 -2.3158 26.1365 12.7214 0.714371 -6.14953 -5.24903 5.41552 -10.5335 -0.994655 -1.16917 22.7117 -16.9814 14.1893 -48.4248 -28.9194 -0.0 0.0 0.0 -0.0 0.0 0.0 -9.13169e-14 -2.2025e-13 -5.07398e-14 31.5686 53.7926 -15.2448 15.0353 -56.3854 -125.233 -1.50878 -32.5994 -5.15656 1.19728e-09 2.69996e-09 -1.63572e-09 2.11199e-09 4.69415e-09 -2.7976e-09 1.19727e-09 2.69994e-09 -1.63572e-09 7.73091 5.47488 0.417314 1.19727e-09 2.69997e-09 -1.63572e-09 2.90554 0.965183 0.102902 1.19728e-09 2.69997e-09 -1.63572e-09 10.2786 0.731801 0.0259123 1.19728e-09 2.69997e-09 -1.63571e-09 2.22167 -0.733487 -0.20892 -9.13722e-14 -2.20257e-13 -5.09883e-14 -46.0386 28.4993 31.003 -11.2554 -57.9568 132.717 0.17585 -11.8655 1.69208 -5.91141e-10 3.5952e-09 -7.90804e-10 -1.01046e-09 6.22859e-09 -1.3732e-09 -5.91142e-10 3.5952e-09 -7.90791e-10 -7.73091 5.47488 -0.417314 -5.91138e-10 3.5952e-09 -7.90807e-10 -2.90554 0.965183 -0.102902 -5.91146e-10 3.5952e-09 -7.90804e-10 -10.2786 0.731801 -0.0259123 -5.91128e-10 3.5952e-09 -7.9081e-10 -2.22167 -0.733487 0.20892 -2.03217e-16 0.0 -3.88251e-19 -3.54478 -42.3628 13.899 -0.410662 45.0527 1.02367 -10.6193 -15.7945 -25.3319 2.03217e-16 0.0 3.88251e-19 -10.1081 -44.8728 -26.5705 0.647967 51.531 -1.09476 7.57011 -14.7822 17.8631
